<svg xmlns="http://www.w3.org/2000/svg" viewBox="0 0 680 680">
  <defs>
    <clipPath id="circle-clip">
      <circle cx="340" cy="340" r="300"/>
    </clipPath>
  </defs>

  <circle cx="340" cy="340" r="300" fill="#5865F2"/>
  <circle cx="340" cy="340" r="260" fill="#4752C4"/>

  <g clip-path="url(#circle-clip)">
    <ellipse cx="280" cy="390" rx="58" ry="42" fill="white" opacity="0.95"/>
    <rect x="330" y="195" width="18" height="200" fill="white" opacity="0.95" rx="9"/>
    <path d="M330 195 Q420 160 430 240 Q380 220 348 240" fill="white" opacity="0.95"/>

    <ellipse cx="430" cy="430" rx="44" ry="32" fill="white" opacity="0.7"/>
    <rect x="468" y="260" width="14" height="175" fill="white" opacity="0.7" rx="7"/>
    <path d="M348 240 Q440 200 480 270 Q440 255 362 272" fill="white" opacity="0.7"/>
  </g>

  <circle cx="490" cy="490" r="72" fill="#0078D4"/>
  <g transform="translate(457,457)">
    <rect x="0"  y="0"  width="27" height="27" fill="white" rx="2"/>
    <rect x="32" y="0"  width="27" height="27" fill="white" rx="2"/>
    <rect x="0"  y="32" width="27" height="27" fill="white" rx="2"/>
    <rect x="32" y="32" width="27" height="27" fill="white" rx="2"/>
  </g>

  <circle cx="190" cy="490" r="72" fill="#F5A623"/>
  <g transform="translate(190,490)">
    <ellipse cx="0" cy="10" rx="28" ry="36" fill="white"/>
    <ellipse cx="0" cy="18" rx="18" ry="24" fill="#F5A623"/>
    <circle cx="0" cy="-28" r="24" fill="#1a1a1a"/>
    <ellipse cx="0" cy="-26" rx="14" ry="16" fill="white"/>
    <circle cx="-6" cy="-31" r="4" fill="#1a1a1a"/>
    <circle cx="6"  cy="-31" r="4" fill="#1a1a1a"/>
    <ellipse cx="0" cy="-20" rx="6" ry="4" fill="#F5A623"/>
    <ellipse cx="-12" cy="46" rx="10" ry="6" fill="#F5A623"/>
    <ellipse cx="12"  cy="46" rx="10" ry="6" fill="#F5A623"/>
  </g>

  <circle cx="340" cy="340" r="300" fill="none" stroke="white" stroke-width="6" opacity="0.15"/>
</svg>
